<?xml version="1.0" standalone="no"?>
<!DOCTYPE svg PUBLIC "-//W3C//DTD SVG 20010904//EN"
 "http://www.w3.org/TR/2001/REC-SVG-20010904/DTD/svg10.dtd">
<svg version="1.0" xmlns="http://www.w3.org/2000/svg"
 width="1280.000000pt" height="720.000000pt" viewBox="0 0 1280.000000 720.000000"
 preserveAspectRatio="xMidYMid meet">

<g transform="translate(0.000000,720.000000) scale(0.100000,-0.100000)"
fill="#000000" stroke="none">
<path d="M6465 6570 c-22 -5 -92 -16 -155 -25 -445 -64 -902 -266 -1270 -562
-109 -87 -296 -274 -383 -383 -581 -722 -750 -1669 -453 -2537 278 -814 946
-1452 1769 -1689 249 -72 480 -104 742 -104 262 0 474 29 726 101 907 256
1612 980 1845 1892 31 122 48 217 69 374 20 150 16 482 -8 643 -61 411 -201
779 -422 1110 -115 172 -199 274 -340 415 -396 394 -923 660 -1460 739 -60 9
-135 21 -166 26 -65 12 -436 11 -494 0z m565 -225 c129 -18 211 -35 227 -47 9
-7 10 -217 6 -892 -4 -486 -3 -892 1 -902 6 -15 69 45 349 324 188 188 346
342 351 342 17 0 141 -148 216 -260 24 -36 47 -66 52 -68 4 -2 8 -11 8 -20 0
-10 -196 -213 -435 -452 -239 -239 -435 -437 -435 -440 0 -3 196 -201 435
-440 383 -382 462 -470 427 -470 -4 0 -16 -15 -27 -32 -30 -53 -160 -220 -205
-263 l-40 -39 -343 342 c-189 189 -346 339 -350 335 -4 -4 -7 -254 -7 -556 1
-302 -2 -553 -7 -556 -22 -19 -224 -66 -336 -78 -58 -7 -72 -7 -97 -4 -7 1
-10 632 -10 1871 l0 1870 -113 0 c-406 0 -835 -144 -1168 -392 -504 -375 -799
-962 -799 -1588 0 -532 214 -1037 597 -1411 159 -155 315 -265 521 -368 l82
-41 0 -240 0 -240 -23 0 c-13 0 -27 4 -33 9 -5 5 -27 14 -49 21 -64 19 -312
143 -407 203 -544 343 -948 906 -1081 1507 -30 139 -47 237 -47 278 0 17 -4
34 -10 37 -14 8 -14 482 0 490 6 3 10 23 10 43 1 91 54 328 111 497 121 352
298 642 557 909 382 393 842 630 1392 716 151 24 527 26 680 5z m581 -153
c371 -152 670 -366 940 -672 243 -277 433 -646 517 -1005 55 -232 65 -316 70
-548 3 -189 1 -237 -18 -355 -28 -178 -44 -254 -82 -382 -249 -840 -967 -1502
-1823 -1679 -311 -65 -699 -69 -970 -11 -27 6 -60 13 -72 16 l-23 4 -2 1073
-3 1072 -358 3 c-329 2 -358 1 -364 -14 -16 -43 66 -276 148 -418 27 -48 49
-91 49 -97 0 -6 -70 -81 -155 -167 -153 -153 -156 -155 -174 -136 -69 71 -205
327 -260 489 -17 50 -43 146 -58 215 -24 114 -27 145 -27 345 -1 243 12 334
75 540 160 519 584 955 1102 1134 153 53 352 94 462 96 7 0 12 -633 15 -1870
l5 -1870 75 -3 c41 -2 131 2 199 8 594 54 1119 361 1458 852 438 634 466 1468
70 2126 -199 333 -470 586 -809 758 l-118 59 0 238 c0 223 1 237 18 237 10 0
61 -17 113 -38z"/>
<path d="M6074 5082 c-159 -88 -359 -271 -457 -419 -90 -136 -197 -396 -197
-480 l0 -23 365 0 365 0 0 475 c0 373 -3 475 -12 475 -7 0 -36 -13 -64 -28z"/>
<path d="M6663 1810 c-12 -5 -29 -22 -37 -38 -15 -29 -15 -30 8 -34 18 -4 27
1 35 19 9 19 18 24 39 21 23 -2 27 -8 27 -33 0 -24 -11 -38 -60 -77 -33 -27
-61 -58 -63 -69 -3 -19 1 -20 90 -17 79 3 93 6 96 21 3 15 -5 17 -54 17 l-57
0 39 28 c21 16 45 36 52 45 20 24 18 76 -5 98 -22 23 -78 33 -110 19z"/>
<path d="M5745 1091 c-79 -20 -125 -72 -125 -138 0 -71 39 -102 168 -138 109
-29 132 -47 113 -84 -13 -24 -32 -31 -88 -31 -38 0 -50 5 -78 33 -34 34 -34
34 -89 24 -31 -6 -56 -15 -56 -20 0 -5 19 -29 43 -52 32 -33 54 -45 95 -54
146 -31 272 13 302 105 15 43 8 73 -26 113 -25 30 -45 38 -201 80 -86 23 -75
91 14 91 36 0 50 -6 74 -29 l28 -29 51 15 c27 8 50 18 50 21 0 13 -51 62 -81
78 -35 18 -150 27 -194 15z"/>
<path d="M6794 1090 c-153 -36 -214 -237 -118 -381 71 -105 270 -118 354 -22
46 52 62 97 62 173 0 74 -23 132 -70 183 -43 46 -145 67 -228 47z m118 -91
c29 -16 48 -70 48 -139 0 -103 -31 -150 -100 -150 -69 0 -111 87 -94 197 12
83 82 126 146 92z"/>
<path d="M6130 860 l0 -230 60 0 60 0 0 95 0 95 85 0 85 0 0 -95 0 -95 65 0
65 0 0 230 0 230 -65 0 -65 0 0 -90 0 -90 -85 0 -85 0 0 90 0 90 -60 0 -60 0
0 -230z"/>
<path d="M7143 1071 c2 -10 33 -114 68 -230 l64 -212 64 3 64 3 42 150 42 150
22 -75 c13 -41 33 -109 45 -150 l23 -75 64 0 64 0 67 225 c37 124 68 226 68
228 0 1 -24 2 -53 2 l-52 0 -40 -145 c-22 -80 -42 -145 -45 -145 -4 0 -26 65
-50 145 l-43 145 -58 0 -58 0 -25 -82 c-14 -46 -33 -111 -42 -145 -10 -35 -20
-63 -24 -63 -4 0 -24 65 -45 145 l-38 145 -65 0 c-58 0 -64 -2 -59 -19z"/>
</g>
</svg>
